<?xml version="1.0" encoding="UTF-8"?>
<!-- Generated by Pixelmator Pro 3.6.17 -->
<svg width="752" height="752" viewBox="0 0 752 752" xmlns="http://www.w3.org/2000/svg">
    <path id="path1" fill="#2a96f3" fill-rule="evenodd" stroke="none" d="M 752 376 C 752 168.340942 583.659058 0 376 0 C 168.340927 0 0 168.340942 0 376 C 0 583.659058 168.340927 752 376 752 C 583.659058 752 752 583.659058 752 376 Z"/>
    <g id="g1">
        <path id="path2" fill="#47f312" fill-opacity="0.596275" fill-rule="evenodd" stroke="none" d="M 375.991425 93 C 297.562256 93 233.982864 156.579346 233.982864 235.008545 C 233.982864 313.437744 297.562256 377.01712 375.991425 377.01712 C 376.108276 92.615112 375.976349 376.033203 375.991425 93 Z"/>
        <path id="-" fill="#f312ae" fill-opacity="0.596275" fill-rule="evenodd" stroke="none" d="M 375.991425 660.98053 C 454.420624 660.98053 518 597.401123 518 518.971924 C 518 440.542755 454.420624 376.963379 375.991425 376.963379 C 375.874603 661.365417 376.006531 377.947296 375.991425 660.98053 Z"/>
    </g>
</svg>
