<?xml version="1.0" encoding="UTF-8"?>
<!-- Generated by Pixelmator Pro 3.6.17 -->
<svg width="1931" height="1935" viewBox="0 0 1931 1935" xmlns="http://www.w3.org/2000/svg">
    <g id="g1">
        <path id="path1" fill="none" stroke="#414a50" stroke-width="140" stroke-linecap="round" stroke-linejoin="round" d="M 1857 964 C 1857 471.362061 1457.637939 72 965 72 C 472.362 72 73 471.362061 73 964 C 73 1456.637939 472.362 1856 965 1856 C 1457.637939 1856 1857 1456.637939 1857 964 Z"/>
        <path id="path2" fill="none" stroke="#ffce14" stroke-width="100" stroke-linecap="round" stroke-linejoin="round" d="M 465.095093 1478.445068 L 478.227081 1460.313599 C 534.360168 1382.810303 667.806702 1213.981201 961.628906 1182.36792 C 1086.049805 1168.981445 1041.018066 1232.545166 1012.793945 1268.241699 C 971.411804 1320.58313 911.674194 1406.677002 1072.658203 1379.270264 C 1153.426514 1365.520996 1317.426514 1271.300537 1372.654785 1238.495239 C 1449.465332 1192.870483 1510.193481 1143.373291 1577 1093"/>
    </g>
</svg>
